<?xml version="1.0" encoding="utf-8"?><svg width="90" height="70" viewBox="0 0 90 70" xmlns="http://www.w3.org/2000/svg" xmlns:xlink="http://www.w3.org/1999/xlink"><view id="gds-info-fill" viewBox="41 34 16 16"/><svg width="16" height="16" fill="none" viewBox="0 0 16 16" x="41" y="34" xmlns="http://www.w3.org/2000/svg"><path fill-rule="evenodd" clip-rule="evenodd" d="M14.666 8A6.667 6.667 0 1 1 1.333 8a6.667 6.667 0 0 1 13.333 0ZM8.861 5.086a.875.875 0 1 1-1.75 0 .875.875 0 0 1 1.75 0ZM6.49 7.476c0-.306.249-.555.555-.555h1.197c.306 0 .555.249.555.555v3.822a.556.556 0 0 1-1.11 0V8.032h-.642a.556.556 0 0 1-.555-.556Z" fill="#BDBDBD"/></svg><view id="icon__ad" viewBox="0 34 24 16"/><svg width="24" height="16" fill="none" viewBox="0 0 24 16" y="34" xmlns="http://www.w3.org/2000/svg"><rect x=".5" y=".5" width="23" height="15" rx="3.5" fill="#fff" stroke="#E0E0E0"/><path d="M9.111 5.168 6.993 11h-.866l2.44-6.398h.558l-.014.566ZM10.887 11 8.764 5.168l-.013-.566h.558L11.757 11h-.87Zm-.11-2.369v.695H7.182V8.63h3.595ZM14.345 11H13.01l.01-.69h1.326c.457 0 .838-.095 1.143-.286.305-.193.533-.462.685-.808.156-.349.233-.756.233-1.222v-.391c0-.366-.044-.691-.132-.976a1.975 1.975 0 0 0-.386-.725c-.17-.199-.378-.35-.624-.452a2.145 2.145 0 0 0-.84-.154h-1.441v-.694h1.441c.42 0 .802.07 1.147.21.346.138.643.339.892.603.252.26.446.577.58.949.135.369.203.785.203 1.248v.382c0 .463-.068.88-.202 1.253a2.554 2.554 0 0 1-1.499 1.547 3.292 3.292 0 0 1-1.2.206Zm-.883-6.398V11h-.848V4.602h.848Z" fill="#9E9E9E"/></svg><view id="icon__bsd-crown" viewBox="24 34 17 16"/><svg width="17" height="16" fill="none" viewBox="0 0 17 16" x="24" y="34" xmlns="http://www.w3.org/2000/svg"><path d="M4.656 12.545a.34.34 0 0 1-.332-.306l-.657-5.493c-.03-.241.258-.376.411-.192L6.496 9.45l1.762-3.6a.232.232 0 0 1 .42 0l1.757 3.602 2.42-2.895c.153-.183.442-.047.412.195l-.662 5.492a.342.342 0 0 1-.334.306l-7.615-.005ZM4.398 4.957c0-.402-.313-.728-.7-.728-.384-.001-.698.324-.698.726 0 .402.312.728.699.728.386 0 .699-.326.699-.728v.002ZM13.301 4.235c-.386 0-.699.325-.699.728 0 .402.313.727.7.727.386 0 .698-.325.698-.727 0-.403-.312-.728-.699-.728ZM8.5 4.455c.387 0 .7-.325.7-.727C9.2 3.325 8.886 3 8.5 3c-.386 0-.698.325-.698.728 0 .402.312.727.699.727Z" fill="#FFD200"/></svg><view id="icon__bsdcategory-arrow" viewBox="20 50 18 19"/><svg width="18" height="19" fill="none" viewBox="0 0 18 19" x="20" y="50" xmlns="http://www.w3.org/2000/svg"><path fill-rule="evenodd" clip-rule="evenodd" d="M8.989 18.5c4.977 0 9.011-4.03 9.011-9s-4.034-9-9.011-9C4.227.5.328 4.19 0 8.862h11.694L8.238 5.584a.614.614 0 0 1 0-.894.696.696 0 0 1 .955 0l4.602 4.363a.6.6 0 0 1 0 .895L9.193 14.31a.697.697 0 0 1-.955 0 .624.624 0 0 1 0-.904l3.456-3.27H0C.327 14.81 4.227 18.5 8.989 18.5Z" fill="#7B00E7"/></svg><view id="icon__checked-radio" viewBox="0 50 20 20"/><svg width="20" height="20" fill="none" viewBox="0 0 20 20" y="50" xmlns="http://www.w3.org/2000/svg"><path fill-rule="evenodd" clip-rule="evenodd" d="m14.5 6.5-6 6H8L5.5 10h-1v1L8 14.5h.5l7-7v-1h-1Z" fill="#94989F"/><path d="m5.2 10.7 3.05 3.05L14.8 7.2" stroke="#333" stroke-width="1.4" stroke-linecap="round" stroke-linejoin="round"/></svg><view id="icon__close" viewBox="66 0 24 24"/><svg width="24" height="24" fill="none" viewBox="0 0 24 24" x="66" xmlns="http://www.w3.org/2000/svg"><path fill-rule="evenodd" clip-rule="evenodd" d="M18.623 6.246a.5.5 0 0 0-.707-.707l-5.754 5.753L6.41 5.539a.5.5 0 0 0-.707.707l5.753 5.753L5.7 17.754a.5.5 0 0 0 .707.707l5.755-5.755 5.756 5.756a.5.5 0 1 0 .707-.708L12.87 12l5.753-5.753Z" fill="#2C2C2C"/></svg><view id="icon__related-arrow" viewBox="0 0 34 34"/><svg width="34" height="34" fill="none" viewBox="0 0 34 34" xmlns="http://www.w3.org/2000/svg"><g clip-path="url(#ga)"><path d="M17 33.5c9.113 0 16.5-7.387 16.5-16.5S26.113.5 17 .5.5 7.887.5 17 7.887 33.5 17 33.5Z" fill="#fff" stroke="#CCC"/><path d="M18.429 11.333 12.762 17l5.667 5.667" stroke="#666" stroke-width="1.5" stroke-linecap="round" stroke-linejoin="round"/></g><defs><clipPath id="ga"><path fill="#fff" d="M0 0h34v34H0z"/></clipPath></defs></svg><view id="icon__swiper-arrow" viewBox="34 0 32 32"/><svg width="32" height="32" fill="none" viewBox="0 0 32 32" x="34" xmlns="http://www.w3.org/2000/svg"><path d="m12 8 8.667 8L12 24" stroke="#222" stroke-width="2" stroke-linecap="round" stroke-linejoin="round"/></svg><view id="icon__swiper-arrow-small" viewBox="66 24 24 24"/><svg width="24" height="24" fill="none" viewBox="0 0 24 24" x="66" y="24" xmlns="http://www.w3.org/2000/svg"><path d="m9 6 6.5 6L9 18" stroke="#222" stroke-width="1.5" stroke-linecap="round" stroke-linejoin="round"/></svg></svg>